// Generated by PGerdToMarkupL

Table identity.__EFMigrationsHistory [note: 'tracks Entity Framework Core migrations applied to the database'] {
  migration_id varchar(150) [pk, not null, unique]
  product_version varchar(32) [not null]
}

Table identity.asp_net_role [note: 'application roles used for authorization (e.g., Admin, User)'] {
  id text [pk, not null, unique]
  name varchar(256) [not null]
  normalized_name varchar(256) [not null]
  concurrency_stamp text [not null]
}

Table identity.asp_net_role_claim [note: 'claims attached to roles for role-based permissions'] {
  id integer [pk, not null, unique]
  role_id text [not null]
  claim_type text [not null]
  claim_value text [not null]
}

Table identity.asp_net_user [note: 'application users stored by ASP.NET Identity'] {
  id text [pk, not null, unique]
  card_number text [not null]
  security_number text [not null]
  expiration text [not null]
  card_holder_name text [not null]
  card_type integer [not null]
  street text [not null]
  city text [not null]
  state text [not null]
  country text [not null]
  zip_code text [not null]
  name text [not null]
  last_name text [not null]
  user_name varchar(256) [not null]
  normalized_user_name varchar(256) [not null]
  email varchar(256) [not null]
  normalized_email varchar(256) [not null]
  email_confirmed boolean [not null]
  password_hash text [not null]
  security_stamp text [not null]
  concurrency_stamp text [not null]
  phone_number text [not null]
  phone_number_confirmed boolean [not null]
  two_factor_enabled boolean [not null]
  lockout_end timestamptz [not null]
  lockout_enabled boolean [not null]
  access_failed_count integer [not null]
}

Table identity.asp_net_user_claim [note: 'claims assigned directly to users (user-specific permissions or attributes)'] {
  id integer [pk, not null, unique]
  user_id text [not null]
  claim_type text [not null]
  claim_value text [not null]
}

Table identity.asp_net_user_login [note: 'external login providers linked to a user (Google, Facebook, etc.)'] {
  login_provider text [pk, not null, unique]
  provider_key text [pk, not null, unique]
  provider_display_name text [not null]
  user_id text [not null]
}

Table identity.asp_net_user_role [note: 'many-to-many (BridgeTable) relationship between users and roles'] {
  user_id text [pk, not null, unique]
  role_id text [pk, not null, unique]
}

Table identity.asp_net_user_token [note: 'tokens associated with users (password reset tokens, refresh tokens, etc.)'] {
  user_id text [pk, not null, unique]
  login_provider text [pk, not null, unique]
  name text [pk, not null, unique]
  value text [not null]
}

Table identity.open_iddict_application [note: 'registered clients (Angular, mobile apps, APIs)'] {
  id text [pk, not null, unique]
  application_type varchar(50) [not null]
  client_id varchar(100) [not null]
  client_secret text [not null]
  client_type varchar(50) [not null]
  concurrency_token varchar(50) [not null]
  consent_type varchar(50) [not null]
  display_name text [not null]
  display_names text [not null]
  json_web_key_set text [not null]
  permissions text [not null]
  post_logout_redirect_uris text [not null]
  properties text [not null]
  redirect_uris text [not null]
  requirements text [not null]
  settings text [not null]
}

Table identity.open_iddict_authorization [note: 'user consent / login sessions'] {
  id text [pk, not null, unique]
  application_id text [not null]
  concurrency_token varchar(50) [not null]
  creation_date timestamptz [not null]
  properties text [not null]
  scopes text [not null]
  status varchar(50) [not null]
  subject varchar(400) [not null]
  type varchar(50) [not null]
}

Table identity.open_iddict_scope [note: 'allowed API scopes'] {
  id text [pk, not null, unique]
  concurrency_token varchar(50) [not null]
  description text [not null]
  descriptions text [not null]
  display_name text [not null]
  display_names text [not null]
  name varchar(200) [not null]
  properties text [not null]
  resources text [not null]
}

Table identity.open_iddict_token [note: 'access tokens, refresh tokens'] {
  id text [pk, not null, unique]
  application_id text [not null]
  authorization_id text [not null]
  concurrency_token varchar(50) [not null]
  creation_date timestamptz [not null]
  expiration_date timestamptz [not null]
  payload text [not null]
  properties text [not null]
  redemption_date timestamptz [not null]
  reference_id varchar(100) [not null]
  status varchar(50) [not null]
  subject varchar(400) [not null]
  type varchar(150) [not null]
}

Ref "roleClaim>role(Simple)": identity.asp_net_role_claim.role_id > identity.asp_net_role.id
Ref "userClaim>user(Simple)": identity.asp_net_user_claim.user_id > identity.asp_net_user.id
Ref "userLogin>user(Simple)": identity.asp_net_user_login.user_id > identity.asp_net_user.id
Ref "userRole>role(BridgeTable)": identity.asp_net_user_role.role_id - identity.asp_net_role.id
Ref "userRole>user(BridgeTable)": identity.asp_net_user_role.user_id - identity.asp_net_user.id
Ref "userToken>User(Simple)": identity.asp_net_user_token.user_id - identity.asp_net_user.id
Ref "openidAuthorization>openidApplication(Simple)": identity.open_iddict_authorization.application_id > identity.open_iddict_application.id
Ref "openidToken>openidApplication(DoubleSimple)": identity.open_iddict_token.application_id > identity.open_iddict_application.id
Ref "openidToken>openidAuthorization(Simple)": identity.open_iddict_token.authorization_id > identity.open_iddict_authorization.id
